<mxfile host="app.diagrams.net" modified="2024-05-09T16:20:52.308Z" agent="Mozilla/5.0 (Windows NT 10.0; Win64; x64) AppleWebKit/537.36 (KHTML, like Gecko) Chrome/124.0.0.0 Safari/537.36" etag="vihyPvXooWpbTUHrdt55" version="24.2.1" type="github">
  <diagram id="C5RBs43oDa-KdzZeNtuy" name="Page-1">
    <mxGraphModel dx="1434" dy="746" grid="1" gridSize="10" guides="1" tooltips="1" connect="1" arrows="1" fold="1" page="1" pageScale="1" pageWidth="827" pageHeight="1169" math="0" shadow="0">
      <root>
        <mxCell id="WIyWlLk6GJQsqaUBKTNV-0" />
        <mxCell id="WIyWlLk6GJQsqaUBKTNV-1" parent="WIyWlLk6GJQsqaUBKTNV-0" />
        <mxCell id="WIyWlLk6GJQsqaUBKTNV-2" value="" style="rounded=0;html=1;jettySize=auto;orthogonalLoop=1;fontSize=11;endArrow=block;endFill=0;endSize=8;strokeWidth=1;shadow=0;labelBackgroundColor=none;edgeStyle=orthogonalEdgeStyle;" parent="WIyWlLk6GJQsqaUBKTNV-1" source="WIyWlLk6GJQsqaUBKTNV-3" target="WIyWlLk6GJQsqaUBKTNV-6" edge="1">
          <mxGeometry relative="1" as="geometry" />
        </mxCell>
        <mxCell id="WIyWlLk6GJQsqaUBKTNV-3" value="Start" style="rounded=1;whiteSpace=wrap;html=1;fontSize=12;glass=0;strokeWidth=1;shadow=0;" parent="WIyWlLk6GJQsqaUBKTNV-1" vertex="1">
          <mxGeometry x="160" y="80" width="120" height="40" as="geometry" />
        </mxCell>
        <mxCell id="WIyWlLk6GJQsqaUBKTNV-5" value="No" style="edgeStyle=orthogonalEdgeStyle;rounded=0;html=1;jettySize=auto;orthogonalLoop=1;fontSize=11;endArrow=block;endFill=0;endSize=8;strokeWidth=1;shadow=0;labelBackgroundColor=none;" parent="WIyWlLk6GJQsqaUBKTNV-1" source="WIyWlLk6GJQsqaUBKTNV-6" target="WIyWlLk6GJQsqaUBKTNV-7" edge="1">
          <mxGeometry y="10" relative="1" as="geometry">
            <mxPoint as="offset" />
          </mxGeometry>
        </mxCell>
        <mxCell id="VxJRwfKBdFo7xFWLdLy9-8" value="" style="edgeStyle=orthogonalEdgeStyle;rounded=0;orthogonalLoop=1;jettySize=auto;html=1;" edge="1" parent="WIyWlLk6GJQsqaUBKTNV-1" source="WIyWlLk6GJQsqaUBKTNV-6" target="VxJRwfKBdFo7xFWLdLy9-7">
          <mxGeometry relative="1" as="geometry">
            <Array as="points">
              <mxPoint x="220" y="320" />
              <mxPoint x="220" y="320" />
            </Array>
          </mxGeometry>
        </mxCell>
        <mxCell id="WIyWlLk6GJQsqaUBKTNV-6" value="Are you registered?" style="rhombus;whiteSpace=wrap;html=1;shadow=0;fontFamily=Helvetica;fontSize=12;align=center;strokeWidth=1;spacing=6;spacingTop=-4;" parent="WIyWlLk6GJQsqaUBKTNV-1" vertex="1">
          <mxGeometry x="170" y="170" width="100" height="80" as="geometry" />
        </mxCell>
        <mxCell id="VxJRwfKBdFo7xFWLdLy9-3" value="" style="edgeStyle=orthogonalEdgeStyle;rounded=0;orthogonalLoop=1;jettySize=auto;html=1;entryX=1;entryY=0.5;entryDx=0;entryDy=0;" edge="1" parent="WIyWlLk6GJQsqaUBKTNV-1" source="WIyWlLk6GJQsqaUBKTNV-7" target="VxJRwfKBdFo7xFWLdLy9-2">
          <mxGeometry relative="1" as="geometry">
            <Array as="points">
              <mxPoint x="430" y="140" />
            </Array>
          </mxGeometry>
        </mxCell>
        <mxCell id="WIyWlLk6GJQsqaUBKTNV-7" value="Sign up page" style="rounded=1;whiteSpace=wrap;html=1;fontSize=12;glass=0;strokeWidth=1;shadow=0;" parent="WIyWlLk6GJQsqaUBKTNV-1" vertex="1">
          <mxGeometry x="320" y="190" width="120" height="40" as="geometry" />
        </mxCell>
        <mxCell id="VxJRwfKBdFo7xFWLdLy9-5" value="" style="edgeStyle=orthogonalEdgeStyle;rounded=0;orthogonalLoop=1;jettySize=auto;html=1;" edge="1" parent="WIyWlLk6GJQsqaUBKTNV-1" source="VxJRwfKBdFo7xFWLdLy9-2" target="WIyWlLk6GJQsqaUBKTNV-6">
          <mxGeometry relative="1" as="geometry" />
        </mxCell>
        <mxCell id="VxJRwfKBdFo7xFWLdLy9-2" value="" style="ellipse;whiteSpace=wrap;html=1;rounded=1;glass=0;strokeWidth=1;shadow=0;" vertex="1" parent="WIyWlLk6GJQsqaUBKTNV-1">
          <mxGeometry x="340" y="120" width="50" height="40" as="geometry" />
        </mxCell>
        <mxCell id="VxJRwfKBdFo7xFWLdLy9-11" value="" style="edgeStyle=orthogonalEdgeStyle;rounded=0;orthogonalLoop=1;jettySize=auto;html=1;" edge="1" parent="WIyWlLk6GJQsqaUBKTNV-1" source="VxJRwfKBdFo7xFWLdLy9-7" target="VxJRwfKBdFo7xFWLdLy9-10">
          <mxGeometry relative="1" as="geometry" />
        </mxCell>
        <mxCell id="VxJRwfKBdFo7xFWLdLy9-7" value="&lt;p class=&quot;MsoNormal&quot;&gt;&lt;span style=&quot;font-size:12.0pt;line-height:107%;font-family:&lt;br/&gt;&amp;quot;Times New Roman&amp;quot;,serif&quot;&gt;&amp;nbsp; &amp;nbsp;Choose&lt;br/&gt;Donation Option&lt;/span&gt;&lt;/p&gt;" style="shape=parallelogram;perimeter=parallelogramPerimeter;whiteSpace=wrap;html=1;fixedSize=1;shadow=0;strokeWidth=1;spacing=6;spacingTop=-4;" vertex="1" parent="WIyWlLk6GJQsqaUBKTNV-1">
          <mxGeometry x="130" y="340" width="220" height="60" as="geometry" />
        </mxCell>
        <mxCell id="VxJRwfKBdFo7xFWLdLy9-15" value="" style="edgeStyle=orthogonalEdgeStyle;rounded=0;orthogonalLoop=1;jettySize=auto;html=1;" edge="1" parent="WIyWlLk6GJQsqaUBKTNV-1" source="VxJRwfKBdFo7xFWLdLy9-10" target="VxJRwfKBdFo7xFWLdLy9-14">
          <mxGeometry relative="1" as="geometry" />
        </mxCell>
        <mxCell id="VxJRwfKBdFo7xFWLdLy9-10" value="&lt;p class=&quot;MsoNormal&quot;&gt;&lt;span style=&quot;font-size:12.0pt;line-height:107%;font-family:&lt;br/&gt;&amp;quot;Times New Roman&amp;quot;,serif&quot;&gt;&amp;nbsp; &amp;nbsp;Enter&lt;br/&gt;Donation Details&lt;/span&gt;&lt;/p&gt;" style="shape=parallelogram;perimeter=parallelogramPerimeter;whiteSpace=wrap;html=1;fixedSize=1;shadow=0;strokeWidth=1;spacing=6;spacingTop=-4;" vertex="1" parent="WIyWlLk6GJQsqaUBKTNV-1">
          <mxGeometry x="130" y="480" width="220" height="60" as="geometry" />
        </mxCell>
        <mxCell id="VxJRwfKBdFo7xFWLdLy9-19" value="" style="edgeStyle=orthogonalEdgeStyle;rounded=0;orthogonalLoop=1;jettySize=auto;html=1;" edge="1" parent="WIyWlLk6GJQsqaUBKTNV-1" source="VxJRwfKBdFo7xFWLdLy9-14" target="VxJRwfKBdFo7xFWLdLy9-18">
          <mxGeometry relative="1" as="geometry" />
        </mxCell>
        <mxCell id="VxJRwfKBdFo7xFWLdLy9-14" value="&lt;p class=&quot;MsoNormal&quot;&gt;&lt;span style=&quot;font-size:12.0pt;line-height:107%;font-family:&lt;br/&gt;&amp;quot;Times New Roman&amp;quot;,serif&quot;&gt;&amp;nbsp; &amp;nbsp;Confirm&lt;br/&gt;Donation&lt;/span&gt;&lt;/p&gt;" style="shape=parallelogram;perimeter=parallelogramPerimeter;whiteSpace=wrap;html=1;fixedSize=1;shadow=0;strokeWidth=1;spacing=6;spacingTop=-4;" vertex="1" parent="WIyWlLk6GJQsqaUBKTNV-1">
          <mxGeometry x="130" y="620" width="220" height="60" as="geometry" />
        </mxCell>
        <mxCell id="VxJRwfKBdFo7xFWLdLy9-25" value="" style="edgeStyle=orthogonalEdgeStyle;rounded=0;orthogonalLoop=1;jettySize=auto;html=1;" edge="1" parent="WIyWlLk6GJQsqaUBKTNV-1" source="VxJRwfKBdFo7xFWLdLy9-18" target="VxJRwfKBdFo7xFWLdLy9-24">
          <mxGeometry relative="1" as="geometry" />
        </mxCell>
        <mxCell id="VxJRwfKBdFo7xFWLdLy9-18" value="&lt;p class=&quot;MsoNormal&quot;&gt;&lt;span style=&quot;font-size:12.0pt;line-height:107%;font-family:&lt;br/&gt;&amp;quot;Times New Roman&amp;quot;,serif&quot;&gt;&amp;nbsp; &amp;nbsp;Payment&lt;br/&gt;Confirmation&lt;/span&gt;&lt;/p&gt;" style="whiteSpace=wrap;html=1;shadow=0;strokeWidth=1;spacing=6;spacingTop=-4;" vertex="1" parent="WIyWlLk6GJQsqaUBKTNV-1">
          <mxGeometry x="480" y="620" width="120" height="60" as="geometry" />
        </mxCell>
        <mxCell id="VxJRwfKBdFo7xFWLdLy9-27" value="" style="edgeStyle=orthogonalEdgeStyle;rounded=0;orthogonalLoop=1;jettySize=auto;html=1;" edge="1" parent="WIyWlLk6GJQsqaUBKTNV-1" source="VxJRwfKBdFo7xFWLdLy9-24" target="VxJRwfKBdFo7xFWLdLy9-26">
          <mxGeometry relative="1" as="geometry" />
        </mxCell>
        <mxCell id="VxJRwfKBdFo7xFWLdLy9-24" value="&lt;p class=&quot;MsoNormal&quot;&gt;&lt;span style=&quot;font-size:12.0pt;line-height:107%;font-family:&lt;br/&gt;&amp;quot;Times New Roman&amp;quot;,serif&quot;&gt;&amp;nbsp; &amp;nbsp; &amp;nbsp;Thank You!&lt;/span&gt;&lt;/p&gt;" style="shape=parallelogram;perimeter=parallelogramPerimeter;whiteSpace=wrap;html=1;fixedSize=1;shadow=0;strokeWidth=1;spacing=6;spacingTop=-4;" vertex="1" parent="WIyWlLk6GJQsqaUBKTNV-1">
          <mxGeometry x="660" y="620" width="220" height="60" as="geometry" />
        </mxCell>
        <mxCell id="VxJRwfKBdFo7xFWLdLy9-26" value="End" style="ellipse;whiteSpace=wrap;html=1;shadow=0;strokeWidth=1;spacing=6;spacingTop=-4;" vertex="1" parent="WIyWlLk6GJQsqaUBKTNV-1">
          <mxGeometry x="1030" y="610" width="80" height="80" as="geometry" />
        </mxCell>
      </root>
    </mxGraphModel>
  </diagram>
</mxfile>
